<svg xmlns="http://www.w3.org/2000/svg" version="1.1" xmlns:xlink="http://www.w3.org/1999/xlink" xmlns:svgjs="http://svgjs.dev/svgjs" viewBox="0 0 800 400"><path d="M293.27353473201595 118.38565056634116C293.27353473201595 120.328849724056 293.27353473201595 126.3079248379883 293.27353473201595 130.04484551263022C293.27353473201595 133.78176618727213 293.27353473201595 138.41554507724612 293.27353473201595 140.80717461419272C293.27353473201595 143.19880415113934 293.42301237280367 142.0029931973633 293.27353473201595 144.3946227343099C293.1240570912282 146.78625227125653 293.12405200496516 150.22421766432294 292.3766688872894 155.1569518358724C291.6292857696136 160.08968600742188 289.3871415028493 168.011955192806 288.78923602596126 173.99102776360678C288.1913305490732 179.97010033440756 289.0881913075368 186.54708092522787 288.78923602596126 191.0313872606771C288.4902807443857 195.5156935961263 287.59341235652766 195.9641290616211 286.99550433650813 200.8968657763021C286.3975963164886 205.8296024909831 285.50074064428804 212.4065830818034 285.20178790584407 220.62780754876303C284.9028351674001 228.84903201572266 285.20178790584407 243.79670962802734 285.20178790584407 250.2242125780599C285.20178790584407 256.6517155280925 282.2122503488779 281.0164425483561 285.20178790584407 259.19282524895834C288.19132546281025 237.36920794956055 298.6547094553232 142.60089485955405 303.13901324764095 119.28250878167319C307.62331703995864 95.96412270379233 307.92226214900813 119.73093916090495 312.1076106597503 119.28250878167319C316.2929591704925 118.83407840244142 323.7668005197764 117.04035688551433 328.25110431209407 116.59192650628256C332.73540810441176 116.1434961270508 336.32284605200294 115.39611173780925 339.01343341365657 116.59192650628256C341.7040207753102 117.78774127475587 342.3019516835133 120.32884718092448 344.39462848201595 123.7668151171224C346.48730528051857 127.20478305332033 349.9252528716644 131.39013665032553 351.5694942046722 137.21973412347006C353.21373553768 143.0493315966146 353.81164610083107 152.16742063673505 354.2600764800628 158.7443999559896C354.7085068592946 165.32137927524414 354.40955157771907 167.86247755201825 354.2600764800628 176.6816100389974C354.11060138240657 185.50074252597656 353.6621760894378 204.18535352858075 353.3632258941253 211.6591948778646C353.0642756988128 219.13303622714844 352.61585040584407 215.695060661556 352.4663753081878 221.52465813470053C352.31690021053157 227.35425560784506 352.6158554921071 240.50822950514325 352.4663753081878 246.63677971673178C352.31689512426857 252.7653299283203 351.71897438859145 260.83706658196616 351.5694942046722 258.2959594042318C351.42001402075294 255.7548522264974 350.97158364152114 242.30194339267578 351.5694942046722 231.39013665032553C352.16740476782326 220.47832990797528 353.2137558827321 210.01495481642255 355.15695758357845 192.82511895013022C357.1001592844248 175.6352830838379 360.38864703670345 140.65769951653647 363.2287044097503 128.25112145257162C366.0687617827972 115.84454338860678 373.69207314347426 117.93722018710939 372.1973018218597 118.38565056634116C370.70253050024513 118.83408094557292 352.1673996815602 132.7354252448893 354.2600764800628 130.94170372796225C356.35275327856544 129.14798221103518 380.1195786366383 110.31390374016928 384.7533626128753 107.62332146477866C389.3871465891123 104.93273918938803 379.6711533436696 113.90134931715495 382.0627803374847 114.7982100756185C384.4544073312998 115.69507083408205 397.45887815649513 113.60239403557944 399.10312457576595 113.0044860155599C400.74737099503676 112.40657799554037 389.3871516753753 110.46337756625978 391.9282588531097 111.21076195550131C394.46936603084407 111.95814634474284 411.65918536678157 116.44245395175783 414.3497676421722 117.48879235100912C417.0403499175628 118.53513075026042 407.47384702856544 116.74140796176759 408.07175250545345 117.48879235100912C408.66965798234145 118.23617674025066 416.2929591704925 119.28251641106772 417.9372005035003 121.97309868645834C419.58144183650813 124.66368096184897 417.9372005035003 131.24065773797201 417.9372005035003 133.63228600335287C417.9372005035003 136.02391426873373 417.9372005035003 134.8281007718262 417.9372005035003 136.3228682787435C417.9372005035003 137.8176357856608 417.9372005035003 141.55455391717123 417.9372005035003 142.60089104485678C417.9372005035003 143.64722817254233 417.9372005035003 141.25559736402994 417.9372005035003 142.60089104485678C417.9372005035003 143.9461847256836 417.9372005035003 148.2810235928711 417.9372005035003 150.67265312981772C417.9372005035003 153.06428266676434 418.08667560115657 153.3632252326823 417.9372005035003 156.95066826653647C417.78772540584407 160.53811130039063 417.0403499175628 170.40358727288412 417.0403499175628 172.19731133294272C417.0403499175628 173.9910353930013 417.78772540584407 166.06876875074872 417.9372005035003 167.71301262688803C418.08667560115657 169.35725650302734 417.9372005035003 178.02690117669272 417.9372005035003 182.06277458977866C417.9372005035003 186.0986480028646 417.9372005035003 189.38714592766928 417.9372005035003 191.92825310540366C417.9372005035003 194.46936028313803 417.9372005035003 195.2167408576823 417.9372005035003 197.3094176561849C417.9372005035003 199.4020944546875 417.9372005035003 201.34530124179688 417.9372005035003 204.48431389641928C417.9372005035003 207.62332655104169 417.9372005035003 213.00448092929688 417.9372005035003 216.14349358391928C417.9372005035003 219.28250623854169 418.3856308827321 218.38565310947266 417.9372005035003 223.31838982415366C417.48877012426857 228.25112653883465 415.5455684234222 243.19880923740234 415.2466182281097 245.73991387200522C414.9476680327972 248.2810185066081 415.99401914770607 240.35873914869794 416.1434993316253 238.56501763177084C416.2929795155446 236.77129611484375 416.89088499243263 231.24066409580078 416.1434993316253 234.97758477044272C415.396113670818 238.71450544508465 411.5097102691253 257.3990986457682 411.65918536678157 260.9865416796224C411.8086604644378 264.57398471347653 416.14348915909926 257.3991037320313 417.0403499175628 256.5022429735677C417.9372106760264 255.60538221510419 417.0403499175628 255.7548547696289 417.0403499175628 255.60537712884116 " fill="none" stroke-width="25" stroke="url(&quot;#SvgjsLinearGradient1000&quot;)" stroke-linecap="round"></path><defs><linearGradient id="SvgjsLinearGradient1000"><stop stop-color="hsl(50, 98%, 60%)" offset="0"></stop><stop stop-color="hsl(50, 98%, 80%)" offset="1"></stop></linearGradient></defs></svg>